<?xml version="1.0" encoding="UTF-8"?>
<svg width="48px" height="49px" viewBox="0 0 48 49" version="1.1" xmlns="http://www.w3.org/2000/svg" xmlns:xlink="http://www.w3.org/1999/xlink">
    <!-- Generator: Sketch 53.2 (72643) - https://sketchapp.com -->
    <title>Shape</title>
    <desc>Created with Sketch.</desc>
    <g id="Whiteboard-Sesh---03.07.19" stroke="none" stroke-width="1" fill="none" fill-rule="evenodd">
        <g id="100_Home" transform="translate(-339.000000, -672.000000)" fill="#E27839">
            <g id="Content" transform="translate(64.000000, 64.000000)">
                <g id="Copy" transform="translate(64.000000, 304.000000)">
                    <path d="M259,328.5 C259,314.978042 248.246,304 235,304 C221.754,304 211,314.978042 211,328.5 C211,342.021958 221.754,353 235,353 C248.246,353 259,342.021958 259,328.5 Z M257,328.5 C257,316.105042 247.142,306.041667 235,306.041667 C222.858,306.041667 213,316.105042 213,328.5 C213,340.894958 222.858,350.958333 235,350.958333 C247.142,350.958333 257,340.894958 257,328.5 Z M234,338.357167 L226.474,328.949167 L225,330.335458 L235,342.791667 L245,330.313 L243.494,328.95325 L236,338.353083 L236,314.208333 L234,314.208333 L234,338.357167 Z" id="Shape"></path>
                </g>
            </g>
        </g>
    </g>
</svg>