<svg xmlns="http://www.w3.org/2000/svg" width="32" height="24" viewBox="0 0 32 24">
  <path fill="#E27839" fill-rule="evenodd" d="M1.47510617,1.14866876 L15.0192592,14.6928218 C15.5920282,15.2655908 16.5206702,15.2655908 17.0934391,14.6928218 L30.5921621,1.1940989 C30.426393,1.07209002 30.2216153,1 30,1 L2,1 C1.80748471,1 1.62767543,1.05440092 1.47510617,1.14866876 L1.47510617,1.14866876 Z M1,2.05634919 L1,22 C1,22.5522847 1.44771525,23 2,23 L30,23 C30.5522847,23 31,22.5522847 31,22 L31,2.16904756 L17.7848324,15.3842151 C16.8302175,16.3388301 15.2824809,16.3388301 14.3278659,15.3842151 L1,2.05634919 Z M2,0 L30,0 C31.1045695,0 32,0.8954305 32,2 L32,22 C32,23.1045695 31.1045695,24 30,24 L2,24 C0.8954305,24 0,23.1045695 0,22 L0,2 C0,0.8954305 0.8954305,0 2,0 Z"/>
</svg>
