<?xml version="1.0" encoding="UTF-8"?>
<svg width="14px" height="30px" viewBox="0 0 14 30" version="1.1" xmlns="http://www.w3.org/2000/svg" xmlns:xlink="http://www.w3.org/1999/xlink">
    <!-- Generator: Sketch 54.1 (76490) - https://sketchapp.com -->
    <title>Phone</title>
    <desc>Created with Sketch.</desc>
    <g id="Review---04.05.19" stroke="none" stroke-width="1" fill="none" fill-rule="evenodd">
        <path d="M11,0 C11,0.55228475 10.5522847,1 10,1 L4,1 C3.44771525,1 3,0.55228475 3,0 L1.5,0 C0.671572875,0 0,0.671572875 0,1.5 L0,28.5 C0,29.3284271 0.671572875,30 1.5,30 L12.5,30 C13.3284271,30 14,29.3284271 14,28.5 L14,1.5 C14,0.671572875 13.3284271,0 12.5,0 L11,0 Z M7,29 C6.44771525,29 6,28.5522847 6,28 C6,27.4477153 6.44771525,27 7,27 C7.55228475,27 8,27.4477153 8,28 C8,28.5522847 7.55228475,29 7,29 Z" id="Phone" fill="#E27839"></path>
    </g>
</svg>