<svg xmlns="http://www.w3.org/2000/svg" width="16" height="32" viewBox="0 0 16 32">
  <path fill="#E27839" fill-rule="evenodd" d="M12,1 C12,1.55228475 11.5522847,2 11,2 L5,2 C4.44771525,2 4,1.55228475 4,1 L2.5,1 C1.67157288,1 1,1.67157288 1,2.5 L1,29.5 C1,30.3284271 1.67157288,31 2.5,31 L13.5,31 C14.3284271,31 15,30.3284271 15,29.5 L15,2.5 C15,1.67157288 14.3284271,1 13.5,1 L12,1 Z M2.5,0 L13.5,0 C14.8807119,0 16,1.11928813 16,2.5 L16,29.5 C16,30.8807119 14.8807119,32 13.5,32 L2.5,32 C1.11928813,32 0,30.8807119 0,29.5 L0,2.5 C0,1.11928813 1.11928813,0 2.5,0 Z M8,30 C7.44771525,30 7,29.5522847 7,29 C7,28.4477153 7.44771525,28 8,28 C8.55228475,28 9,28.4477153 9,29 C9,29.5522847 8.55228475,30 8,30 Z"/>
</svg>
