<?xml version="1.0" encoding="UTF-8"?>
<svg width="12px" height="12px" viewBox="0 0 12 12" version="1.1" xmlns="http://www.w3.org/2000/svg" xmlns:xlink="http://www.w3.org/1999/xlink">
    <!-- Generator: Sketch 53.2 (72643) - https://sketchapp.com -->
    <title>Shape</title>
    <desc>Created with Sketch.</desc>
    <g id="Symbols" stroke="none" stroke-width="1" fill="none" fill-rule="evenodd">
        <path d="M2.5,3.5 C3.8805,3.5 5,4.6195 5,6 C5,7.3805 3.8805,8.5 2.5,8.5 C1.1195,8.5 0,7.3805 0,6 C0,4.6195 1.1195,3.5 2.5,3.5 Z M8.061,9.5325 C8.0245,9.683 8,9.838 8,10 C8,11.1045 8.8955,12 10,12 C11.1045,12 12,11.1045 12,10 C12,8.8955 11.1045,8 10,8 C9.4175,8 8.898,8.253 8.5325,8.6505 L5.7885,7.187 C5.6735,7.505 5.514,7.8015 5.317,8.069 L8.061,9.5325 L8.061,9.5325 Z M12,2 C12,0.8955 11.1045,0 10,0 C8.8955,0 8,0.8955 8,2 C8,2.162 8.0245,2.317 8.061,2.4675 L5.317,3.931 C5.5145,4.1985 5.6735,4.4945 5.7885,4.813 L8.5325,3.3495 C8.898,3.747 9.4175,4 10,4 C11.1045,4 12,3.1045 12,2 Z" id="Shape" fill="#E27839"></path>
    </g>
</svg>