<svg xmlns="http://www.w3.org/2000/svg" xmlns:xlink="http://www.w3.org/1999/xlink" width="12" height="12" viewBox="0 0 12 12">
  <defs>
    <path id="close-a" d="M5.25,4.73565249 L9.87912763,0.106524858 C10.0211608,-0.035508286 10.251442,-0.035508286 10.3934751,0.106524858 C10.5355083,0.248558002 10.5355083,0.478839228 10.3934751,0.620872372 L5.76434751,5.25 L10.3934751,9.87912763 C10.5355083,10.0211608 10.5355083,10.251442 10.3934751,10.3934751 C10.251442,10.5355083 10.0211608,10.5355083 9.87912763,10.3934751 L5.25,5.76434751 L0.620872372,10.3934751 C0.478839228,10.5355083 0.248558002,10.5355083 0.106524858,10.3934751 C-0.035508286,10.251442 -0.035508286,10.0211608 0.106524858,9.87912763 L4.73565249,5.25 L0.106524858,0.620872372 C-0.035508286,0.478839228 -0.035508286,0.248558002 0.106524858,0.106524858 C0.248558002,-0.035508286 0.478839228,-0.035508286 0.620872372,0.106524858 L5.25,4.73565249 Z"/>
  </defs>
  <g fill="none" fill-rule="evenodd" transform="translate(.75 .75)">
    <mask id="close-b" fill="#fff">
      <use xlink:href="#close-a"/>
    </mask>
    <use fill="#B4B4B4" xlink:href="#close-a"/>
    <g fill="#E27839" mask="url(#close-b)">
      <rect width="12" height="12" transform="translate(-.75 -.75)"/>
    </g>
  </g>
</svg>
