<?xml version="1.0" encoding="UTF-8"?>
<svg width="24px" height="32px" viewBox="0 0 24 32" version="1.1" xmlns="http://www.w3.org/2000/svg" xmlns:xlink="http://www.w3.org/1999/xlink">
    <!-- Generator: Sketch 53.2 (72643) - https://sketchapp.com -->
    <title>Flame</title>
    <desc>Created with Sketch.</desc>
    <g id="Whiteboard-Sesh---03.07.19" stroke="none" stroke-width="1" fill="none" fill-rule="evenodd">
        <g id="100_Home" transform="translate(-20.000000, -16.000000)" fill="#FFFFFF">
            <g id="Nav-Bar">
                <path d="M36.1903576,19.2611674 C36.1903576,19.2611674 36.4672196,21.3799092 34.1499568,23.2014622 C31.2064758,25.51833 31.0782448,27.3986428 32.4250332,28.2069662 C33.6883986,28.9659468 38.9083418,26.6908888 38.8544264,23.340075 C38.7997826,20.061581 36.1903576,19.2611674 36.1903576,19.2611674 Z M28.4057972,29.239029 C28.4057972,29.239029 27.935496,26.569226 29.4611518,24.3657344 C30.8509266,22.3471856 32.953257,21.0386506 33.4512444,20.3116868 C33.76235,19.8578051 34.6060506,18.9771619 33.9036952,16 C33.9036952,16 41.6372547,16.86181 41.6372547,23.2730286 C41.6372547,29.6850006 35.0442942,31.9788918 32.6286726,32.7894754 C30.2152366,33.5989288 24.6127866,34.7594344 24.6127866,40.2259766 C24.6127866,42.7985999 26.9129278,45.6032491 30.2389156,45.7347053 C32.4046328,45.8164417 35.1302672,44.5150633 36.0792484,42.9451227 C37.822751,40.0862338 36.3834324,38.6733626 36.0045684,38.2831374 C35.3965648,38.3577172 33.6887628,38.6733626 32.5186564,38.825912 C31.912474,38.9065184 30.8130402,39.1807306 30.6917308,40.6342818 C30.3558534,40.1981034 29.2571482,39.1020076 29.8600518,37.5780202 C30.622151,35.651001 32.211558,35.4604084 33.9193598,35.0664166 C35.6639552,34.6705414 38.3932326,34.0452772 38.9633498,33.8543078 C40.0238045,33.497606 41.2725983,32.244064 40.8944629,30.7509632 C42.1443495,30.9487124 43.7035203,31.496007 43.9672677,33.3789564 C44.2317439,35.3767886 42.8281261,36.5165776 42.1086489,36.948236 C41.4223223,37.3403444 41.4634875,37.3403444 40.5939219,37.5780202 C41.3112133,38.593133 41.3501925,41.0248836 40.5155991,42.7846633 C39.8700733,44.1632581 38.8853914,45.2985269 37.1025452,46.4337959 C34.373268,48.1596759 31.419951,48.0801997 28.839305,47.9242603 C26.7067384,47.8048573 19.4620589,45.6503323 20.0318121,38.2047912 C20.2594947,34.9470136 21.5458105,33.534519 22.9869505,32.2075276 C24.4284547,30.8730026 27.264834,29.748657 28.4057972,29.239029 Z" id="Flame"></path>
            </g>
        </g>
    </g>
</svg>