<?xml version="1.0" encoding="UTF-8"?>
<svg width="78px" height="64px" viewBox="0 0 78 64" version="1.1" xmlns="http://www.w3.org/2000/svg" xmlns:xlink="http://www.w3.org/1999/xlink">
    <!-- Generator: Sketch 53.2 (72643) - https://sketchapp.com -->
    <title>“</title>
    <desc>Created with Sketch.</desc>
    <g id="Review---04.05.19" stroke="none" stroke-width="1" fill="none" fill-rule="evenodd">
        <g id="103_Home" transform="translate(-64.000000, -128.000000)" fill="#E27839">
            <g id="Content" transform="translate(0.000000, 64.000000)">
                <g id="Group" transform="translate(64.000000, 64.000000)">
                    <g id="Pullquote">
                        <path d="M18.21875,64 C12.145803,64 7.59116102,61.8039435 4.5546875,57.4117647 C1.51821398,53.0195859 0,46.8877399 0,39.0160428 C0,30.4598503 2.17706156,22.9019936 6.53125,16.342246 C10.8854384,9.7824984 17.6457875,4.33513754 26.8125,0 L33,12.6631016 C27.4999725,15.0588355 23.3750137,17.9964175 20.625,21.4759358 C17.8749862,24.9554541 16.5,29.2620064 16.5,34.3957219 C16.8437517,34.2816394 17.4166627,34.2245989 18.21875,34.2245989 C22.3437706,34.2245989 25.8385273,35.4794883 28.703125,37.9893048 C31.5677227,40.4991213 33,43.921547 33,48.2566845 C33,53.0481523 31.6250137,56.869861 28.875,59.7219251 C26.1249863,62.5739893 22.5729384,64 18.21875,64 Z M63.21875,64 C57.145803,64 52.591161,61.8039435 49.5546875,57.4117647 C46.518214,53.0195859 45,46.8877399 45,39.0160428 C45,30.4598503 47.1770616,22.9019936 51.53125,16.342246 C55.8854384,9.7824984 62.6457875,4.33513754 71.8125,0 L78,12.6631016 C72.4999725,15.0588355 68.3750137,17.9964175 65.625,21.4759358 C62.8749862,24.9554541 61.5,29.2620064 61.5,34.3957219 C61.8437517,34.2816394 62.4166627,34.2245989 63.21875,34.2245989 C67.3437706,34.2245989 70.8385273,35.4794883 73.703125,37.9893048 C76.5677227,40.4991213 78,43.921547 78,48.2566845 C78,53.0481523 76.6250137,56.869861 73.875,59.7219251 C71.1249862,62.5739893 67.5729384,64 63.21875,64 Z" id="“"></path>
                    </g>
                </g>
            </g>
        </g>
    </g>
</svg>